<svg version="1.1" id="Layer_1" xmlns="http://www.w3.org/2000/svg" xmlns:xlink="http://www.w3.org/1999/xlink" x="0px" y="0px"
	 viewBox="-44 0 723 792" enable-background="new -44 0 723 792" xml:space="preserve">
<g id="Layer_2" display="none">
	<g id="O3btSA_1_" display="inline">
	</g>
</g>
<g id="Layer_1_1_">
	<g>
		<path fill="#666666" d="M272.5,622.6"/>
		<path fill="#666666" d="M299.3,584.7l-57.3,0.7"/>
		<path fill="#666666" d="M216,228.7"/>
		<path fill="#666666" d="M159.2,171.8l-2.9-1.7C148.2,170.2,159.2,171.8,159.2,171.8z"/>
		<path fill="#666666" d="M270.6,549.5"/>
		<path fill="#666666" d="M265,180.1c-1.4-29.8,23-53.4,31.3-54.4c0.5,5.1-0.5,24.7,8,30.6c2.4-16,10.7-33.7,43.5-45.2
			c-7,18.5-1,34.2,2,41.5c22.4-20.2,37.4-17,37.4-17s-15.5,26.9-9.5,44.4C332.8,176.7,265.2,184.9,265,180.1z"/>
		<path fill="#666666" d="M169.8,225.3c-10.7-8.8-2.7-17.2-3.6-27.2c-0.5-5.4-0.9-10.4-2.7-13.3c-9.9-15.6-33.1-20.2-33.3-20.4
			l-10.9-2.2l7.3-8.5c1-1,30.6-29.4,76.5-14.6c32.1,10.4,55.9,45.6,56.8,46.9l-16.2,7.6c-0.2-0.3-19-33.3-46.6-42.2
			c-22.3-7.1-42.8-0.3-51.7,4.1c9.3,3.7,21.6,10.5,28.9,22.1c3.4,5.4,4.1,12.4,4.6,19c0.7,8.8,1.4,17.2,8,22.6L169.8,225.3z"/>
		<path fill="#666666" d="M270.6,549.5"/>
		<path fill="#666666" d="M261.2,358.6c0.3,0.5,0.5,0.9,0.5,0.9s-22.1,16.7-44.7-0.2c-12.1-9-11.1-31.3-7.3-40.8
			c9.7,2.2,17.8,6.1,24.6,10.7c-8.7-7.6-16.1-13.4-16.1-13.6l-9.9-2.7l-19-6.6c-0.2,1.5-7.1,34.2,12.9,56.4
			c8.8,9.9,50.7,32,70.6-5.8L261.2,358.6z"/>
		<path fill="#666666" d="M259.2,361c12.4,18.9,43.9,8.2,43.4-11.9c0,0-20.9,11.6-39.4-9.7c-10.9-12.4-45.4-46.8-92.5-35.4
			C202.9,311.2,245.9,340.8,259.2,361z"/>
		<g>
			<path fill="#666666" d="M270.6,549.5"/>
		</g>
		<path fill="#666666" d="M166,414.4c3.1,1.7,13.6,12.6,13.6,29.1c0,8.2-0.9,49.3-4.9,74.5c6.1,3.9,10.4,4.8,16.5,8.8
			c3.1-29.1,5.3-71.4,4.2-88.4c-1.2-19.4-11.6-32.5-21.2-38.1c-3.1-1.7-6.1-3.4-9.3-5.1c-16.5-9-33.7-18.2-33.7-34
			c0-12.4,4.8-16.1,9.9-20.2l0.5-0.5c3.4-2.7,7.1-5.8,9.5-10.9c6.1-13.9,7.1-49.1,0-58.1c-3.6-4.4-13.1-19.5-10.4-29.6
			c1-3.9,3.4-6.6,7.5-8.7c4.2-2.2,9.9-3.2,16.8-3.2c13.6,0,28.7,4.1,36.5,6.6c27.9,9,61.5,34.5,71.2,42c0.3,0.2,0.5,0.3,0.5,0.3
			l6.1,4.2l-3.9-6.5c-0.2-0.3-24.7-40.6-68.5-55.4c-8.5-2.9-25.2-7.7-41.7-7.7c-9.9,0-18,1.7-24.6,5.1c-8,4.1-13.4,10.7-15.6,18.9
			c-5.4,20.2,12.4,42.8,13.1,43.5c2,3.7,3.1,30.9-1.9,41.8c-0.7,1.5-2.6,3.1-4.8,4.9c-0.7,0.5-1.5,1.2-2.4,1.9
			c-6.8,5.1-17.2,12.9-17.2,30.9c0,24.6,25,37.9,44.9,48.6C160.1,411.1,163.3,412.8,166,414.4z"/>
		<g>
			<g>
				<path fill="#666666" d="M169.8,225.3c-10.7-8.8-2.7-17.2-3.6-27.2c-0.5-5.4-0.9-10.4-2.7-13.3c-9.9-15.6-33.1-20.2-33.3-20.4
					l-10.9-2.2l7.3-8.5c1-1,30.6-29.4,76.5-14.6c32.1,10.4,55.9,45.6,56.8,46.9l-16.2,7.6c-0.2-0.3-19-33.3-46.6-42.2
					c-22.3-7.1-42.8-0.3-51.7,4.1c9.3,3.7,21.6,10.5,28.9,22.1c3.4,5.4,4.1,12.4,4.6,19c0.7,8.8,1.4,17.2,8,22.6L169.8,225.3z"/>
			</g>
			<g>
				<path fill="#666666" d="M169.4,227.2l-0.7-0.5c-8-6.6-6.5-13.1-5.1-19.4c0.7-2.9,1.4-5.9,1-9c-0.5-5.1-0.9-10-2.4-12.6
					c-9.4-14.8-32.1-19.6-32.3-19.6l-13.6-2.7l9-10.5c0-0.2,19-19.4,51.3-19.4c8.8,0,17.9,1.5,26.9,4.4
					c33.5,10.9,57.5,47.3,57.6,47.6l1,1.5l-19.2,8.8l-0.7-1.2c-2-3.6-20.1-33.3-45.7-41.5c-6.3-2-12.9-3.1-19.7-3.1
					c-12.2,0-22.1,3.4-27.5,5.6c8.8,3.9,19.6,10.7,26.3,21.4c3.7,5.8,4.2,12.9,4.9,19.9c0.7,8.5,1.4,16.7,7.3,21.6l2.2,1.9
					L169.4,227.2z"/>
			</g>
		</g>
		<g>
			<g>
				<path fill="#666666" d="M157.2,165.5l2,6.1c2.4-0.5,6.8-1.4,12.2-1.4 M213.5,206.3l11.1-4.4"/>
			</g>
		</g>
		<path fill="#666666" d="M271.4,613.6L271.4,613.6c-4.8,0-9.7-1.7-13.1-4.8c-2.6-2.2-11.4-10.4-15.3-20.2c-1.5-3.7-1.2-6.6,1-8.8
			c1.5-1.5,4.4-3.2,10.5-3.2h4.3c5.1,0,13.8,0,21.2,0h7.1c4.6,0,8,1,9.9,2.9c2.4,2.5,1.7,5.8,1,7.5c-1.2,2.9-6.1,12.6-14.4,21.6
			C280.8,611.7,276.4,613.6,271.4,613.6z"/>
		<path fill="#666666" d="M236.8,546.3c0-5.1,1-10,3.6-15c0.2-0.3,0.3-0.7,0.5-1c-16-0.2-34.5-1.7-50.2-8
			c-17.3-7-38.9-30.6-42.5-58.3c0,0-32.5,25.2-22.9,78.7c9,50.5,51.2,66.8,99.3,69.7c0-0.3-5.4-11.6-3.7-18.4
			c-27.4,2-57.8-8.5-72.6-32.8c-13.4-22.3-9.7-60.2-4.2-65.6C157.5,538.3,206.3,547,236.8,546.3z"/>
		<path fill="#666666" d="M323.3,612.4"/>
		<path fill="#666666" d="M241.9,515.7c-8.7,25.3-26.3,45.9-26.3,45.9s24.3-1.2,25.7-5.4c1-3.2,21.9-52.4,30.1-109.8
			C263.6,458.9,242.5,513.5,241.9,515.7z"/>
		<path fill="#666666" d="M323,641.5"/>
		<path fill="#666666" d="M430.2,228.7"/>
		<path fill="#666666" d="M487,171.8l2.9-1.7C498.1,170.2,487,171.8,487,171.8z"/>
		<path fill="#666666" d="M375.5,549.5"/>
		<path fill="#666666" d="M476.5,225.3c10.7-8.8,2.7-17.2,3.6-27.2c0.5-5.4,0.9-10.4,2.7-13.3c9.9-15.6,33.1-20.2,33.3-20.4
			l10.9-2.2l-7.3-8.5c-1-1-30.6-29.4-76.5-14.6c-32.1,10.4-55.9,45.6-56.8,46.9l16.1,7.6c0.2-0.3,19-33.3,46.6-42.2
			c22.3-7.1,42.8-0.3,51.7,4.1c-9.4,3.7-21.6,10.5-28.9,22.1c-3.4,5.4-4.1,12.4-4.6,19c-0.7,8.8-1.5,17.2-8,22.6L476.5,225.3z"/>
		<path fill="#666666" d="M487.5,305.7"/>
		<path fill="#666666" d="M375.5,549.5"/>
		<path fill="#666666" d="M385,358.6c-0.3,0.5-0.5,0.9-0.5,0.9s22.1,16.7,44.7-0.2c12.1-9,11-31.3,7.3-40.8
			c-9.7,2.2-17.9,6.1-24.6,10.7c8.7-7.6,16.1-13.4,16.1-13.6l9.9-2.7l19-6.6c0.2,1.5,7.1,34.2-12.9,56.4c-8.8,9.9-50.7,32-70.5-5.8
			L385,358.6z"/>
		<path fill="#666666" d="M387,361c-12.4,18.9-43.9,8.2-43.4-11.9c0,0,20.9,11.6,39.4-9.7c10.9-12.4,45.6-46.8,92.5-35.4
			C443.3,311.2,400.3,340.8,387,361z"/>
		<g>
			<path fill="#666666" d="M375.5,549.5"/>
		</g>
		<path fill="#666666" d="M504.5,340.4c-3.4-2.7-7.1-5.8-9.5-10.9c-6.1-13.9-7.1-49.1,0-58.1c3.6-4.4,13.1-19.5,10.4-29.6
			c-1-3.9-3.4-6.6-7.5-8.7c-4.2-2.2-9.9-3.2-16.8-3.2c-13.6,0-28.7,4.1-36.6,6.6c-27.7,9-61.4,34.5-71.1,42
			c-0.3,0.2-0.5,0.3-0.5,0.3l-6.1,4.2l3.9-6.5c0.2-0.3,24.6-40.6,68.5-55.4c8.5-2.9,25.2-7.7,41.6-7.7c9.9,0,18,1.7,24.6,5.1
			c8,4.1,13.4,10.7,15.6,18.9c5.4,20.2-12.4,42.8-13.1,43.5c-2,3.7-3.1,30.9,1.9,41.8c0.7,1.5,2.6,3.1,4.8,4.9
			c0.7,0.5,1.5,1.2,2.4,1.9c6.8,5.1,17.2,12.9,17.2,30.9c0,24.6-25,37.9-44.9,48.6c-3.4,1.9-6.5,3.6-9.4,5.1
			c-3.1,1.7-13.6,12.6-13.6,29.1c0,8.2,0.9,49.3,4.9,74.5c-6.1,3.9-10.4,4.8-16.5,8.8c-3.1-29.1-5.3-71.4-4.2-88.4
			c1.2-19.4,11.6-32.5,21.2-38.1c3.1-1.7,6.1-3.4,9.4-5.1c16.5-9,33.7-18.2,33.7-34"/>
		<path fill="#666666" d="M450.3,222.4c-3.9-6.8-14.1-19.7-37.4-31.1c-26-12.8-56.3-19.2-89.8-19.2l0,0l0,0l0,0l0,0
			c-33.5,0-63.6,6.5-89.8,19.2c-23.3,11.4-33.5,24.3-37.4,31.1l-1.7,2.2l20.1,4.4l0.7-0.9l0.3-0.7c0.3-1.4,3.1-8.5,25.3-19.4
			c23.8-11.6,51.7-17.5,82.6-17.5s58.8,5.9,82.6,17.5c22.3,10.9,25,18,25.3,19.4l0.3,0.7l0.7,0.9l20.1-4.4L450.3,222.4z"/>
		<g>
			<g>
				<path fill="#666666" d="M476.5,225.3c10.7-8.8,2.7-17.2,3.6-27.2c0.5-5.4,0.9-10.4,2.7-13.3c9.9-15.6,33.1-20.2,33.3-20.4
					l10.9-2.2l-7.3-8.5c-1-1-30.6-29.4-76.5-14.6c-32.1,10.4-55.9,45.6-56.8,46.9l16.1,7.6c0.2-0.3,19-33.3,46.6-42.2
					c22.3-7.1,42.8-0.3,51.7,4.1c-9.4,3.7-21.6,10.5-28.9,22.1c-3.4,5.4-4.1,12.4-4.6,19c-0.7,8.8-1.5,17.2-8,22.6L476.5,225.3z"/>
			</g>
			<g>
				<path fill="#666666" d="M455.9,220.2l2.2-1.9c6-4.9,6.6-13.1,7.5-21.6c0.5-6.8,1.2-13.9,4.9-19.9c6.8-10.7,17.5-17.3,26.4-21.4
					c-5.3-2.2-15.3-5.6-27.5-5.6c-6.8,0-13.4,1-19.7,3.1c-25.5,8.3-43.7,38.1-45.7,41.5l-0.9,1.2l-18.9-8.7l1-1.5
					c0.2-0.3,24.1-36.7,57.6-47.6c9-2.9,18-4.4,26.9-4.4c32.3,0,51.3,19.2,51.5,19.4l9,10.5l-13.6,2.7c-0.2,0-22.9,4.8-32.3,19.6
					c-1.5,2.6-2,7.3-2.4,12.6c-0.3,3.1,0.3,6.1,1,9c1.4,6.3,2.7,12.8-5.1,19.4l-0.7,0.5L455.9,220.2z"/>
			</g>
		</g>
		<path fill="#666666" d="M374.6,613.8c-4.8-0.2-9.2-2-12.2-5.1c-8.3-9-13.3-18.5-14.5-21.6c-0.7-1.7-1.5-4.9,1-7.5
			c1.9-1.9,5.3-2.9,9.9-2.9h7.1c7.5,0,16.1,0,21.2,0h4.2c6.1,0,9,1.7,10.5,3.2c2,2,2.4,5.1,1,8.8c-3.9,9.9-12.6,18-15.3,20.2"/>
		<path fill="#666666" d="M409.3,546.3c0-5.1-1-10-3.6-15c-0.2-0.3-0.3-0.7-0.5-1c16-0.2,34.5-1.7,50.1-8
			c17.3-7,38.9-30.6,42.5-58.3c0,0,32.5,25.2,22.9,78.7c-9,50.5-51.2,66.8-99.3,69.7c0-0.3,5.4-11.6,3.7-18.4
			c27.4,2,57.8-8.5,72.6-32.8c13.4-22.3,9.7-60.2,4.1-65.6C488.7,538.3,439.9,547,409.3,546.3z"/>
		<g>
			<path fill="#666666" d="M323,612.4"/>
			<path fill="#666666" d="M428.9,558.9c-5.8-6.3-16.3-13.6-40.6-13.6c0,0-46.2,0-64.9,0l0,0l0,0l0,0l0,0c-18.7,0-64.9,0-64.9,0
				c-24.3,0-35,7.5-40.6,13.6c-8.3,9-9.7,21.6-3.9,37.4c15.5,41.8,37.1,84.3,109.5,84.5l0,0l0,0l0,0l0,0
				c72.4,0,94.2-42.7,109.5-84.5C438.6,580.6,437.2,568,428.9,558.9z M417.5,593.4c-7.3,21.1-27,71.9-94.4,72.1
				c-67.3-0.2-87-51-94.4-72.1c-4.1-11.7-3.7-20.2,1-25.7c3.2-3.7,10.5-8,27.4-8h17.5c12.9,0,29.2,0,48.5,0c19.2,0,35.5,0,48.4,0
				h17.5c16.8,0,24.1,4.4,27.4,8C421.2,573,421.6,581.6,417.5,593.4z"/>
		</g>
		<path fill="#666666" d="M404.4,515.7c8.7,25.3,26.4,45.9,26.4,45.9s-24.3-1.2-25.7-5.4c-1-3.2-21.9-52.4-30.1-109.8
			C382.6,458.9,403.5,513.5,404.4,515.7z"/>
	</g>
</g>
</svg>
