<svg xmlns="http://www.w3.org/2000/svg" xmlns:xlink="http://www.w3.org/1999/xlink" version="1.1" id="Layer_1" x="0px" y="0px" width="150px" height="150px" viewBox="0 0 100 100">
<path d="M60,50.775c0-4.283,2.033-7.688,5.371-9.158c3.34-1.47,7.104-0.68,10.012,1.971c0.933,0.849,1.748,1.257,2.6,0.86  C78.857,44.041,79,42.545,79,41.615V25.657C79,23.524,77.416,22,75.282,22H59.428c-0.93,0-2.495,0.331-2.909,1.222  c-0.412,0.886,0.017,1.988,0.876,2.931c2.643,2.898,3.379,6.854,1.924,10.158C57.855,39.632,54.417,42,50.122,42h-0.076h-0.05  c-4.283,0-7.688-2.417-9.158-5.754c-1.47-3.34-0.679-7.295,1.971-10.202c0.85-0.933,1.257-1.961,0.86-2.812  C43.261,22.357,41.765,22,40.835,22H24.877C22.744,22,21,23.524,21,25.657v15.854c0,0.93,0.417,2.495,1.308,2.91  c0.886,0.412,2.032-0.018,2.974-0.877c2.898-2.642,6.79-3.378,10.094-1.923C38.697,43.084,41,46.523,41,50.818v0.076v0.05  c0,4.282-2.33,7.688-5.668,9.158c-3.34,1.47-7.25,0.68-10.158-1.971c-0.932-0.851-2.025-1.257-2.877-0.861  C21.422,57.679,21,59.175,21,60.105v15.957C21,78.195,22.744,80,24.877,80h15.854c0.931,0,2.496-0.471,2.91-1.361  c0.412-0.887-0.017-2.058-0.876-3.001c-2.642-2.898-3.378-6.75-1.923-10.054C42.305,62.263,45.743,60,50.039,60h0.076h0.049  c4.283,0,7.688,2.275,9.158,5.615c1.47,3.338,0.68,7.223-1.971,10.131c-0.851,0.933-1.257,2.065-0.86,2.917  C56.898,79.537,58.395,80,59.325,80h15.957C77.416,80,79,78.195,79,76.062V60.208c0-0.93-0.213-2.495-1.104-2.91  c-0.885-0.412-1.929,0.018-2.872,0.878c-2.896,2.642-6.443,3.377-9.747,1.923C61.956,58.636,60,55.197,60,50.901v-0.076V50.775z" fill="none" stroke="#666666" stroke-width="3" />
</svg>