<?xml version="1.0" encoding="utf-8"?>
<!-- Generator: Adobe Illustrator 18.0.0, SVG Export Plug-In . SVG Version: 6.00 Build 0)  -->
<!DOCTYPE svg PUBLIC "-//W3C//DTD SVG 1.1//EN" "http://www.w3.org/Graphics/SVG/1.1/DTD/svg11.dtd">
<svg version="1.1" id="Layer_1" xmlns="http://www.w3.org/2000/svg" xmlns:xlink="http://www.w3.org/1999/xlink" x="0px" y="0px"
	 viewBox="0 -310 920 920" enable-background="new 0 -310 920 920" xml:space="preserve">
<path fill="#666666" d="M917.5,98.3c-6.9-13.9-13.3-29.6-13.3-29.6c-4.4-20.8-10.1-20.8-10.1-20.8c-6.3-8.8-27.8-3.8-27.8-3.8
	c-10.1,5.7-85.3,26.5-103.6,31.5c-18.3,5-144.7,41-144.7,41c-39.8-14.5-136.4-15.8-136.4-15.8c-105.5-3.8-165.5,19.5-165.5,19.5
	c-37.9,24-59.4,10.7-59.4,10.7c-20.2,0-36.6-13.2-36.6-13.2c-24-20.1-89.7-44.7-89.7-44.7C150.6,69.3,270,26.4,270,26.4
	c80.2-26.5,111.2,2.5,111.2,2.5C407.7,44.1,460,88.2,460,88.2c24.5,17.6,29.8-6.9,29.8-6.9c1.3-17.7-3.8-19.5-44.8-40.3
	s-51.8-29.6-80.9-37.2c-29.1-7.6-67-2.5-120,5S55.2,47.9,55.2,47.9l-4.4,0.6c-24.6-1.9-31,0.6-31,0.6C-7.9,51.6,1.6,86.9,1.6,86.9
	C19.3,166.3,66,223.7,66,223.7c48,52.3,104.2,45.4,104.2,45.4c39.8,1.3,60.6-37.8,60.6-37.8c14.5-17,18.3-50,18.3-50
	c25.9,6.1,29.7,17.2,29.7,17.2c10.1,12,27.2,41.6,27.2,41.6c55,90.8,156.7,79.4,156.7,79.4c84.6,1.3,127-85.1,127-85.1
	c10.7-16.4,34.1-56.1,34.1-56.1c0.6,0,52.4-22.5,52.4-22.5c42.3-10.6,135.8-55.6,135.8-55.6c19.6-11.3,62.5-34.7,62.5-34.7
	c18.3,1.9,25.3,60.5,26.5,64.9c1.3,4.4,10.7,21.4,16.4-2.5S917.5,98.3,917.5,98.3L917.5,98.3z M206.2,231.9
	c-13.3,39.1-69.5,19.5-69.5,19.5c-48.3-16.2-68.9-58-79.6-81.3c-0.3-0.8-0.7-1.5-1-2.3c-9.7-22.4-9.1-42.5-9.1-42.5
	c8.8-17.7,10.1-29,10.1-29c7.6,1.3,40.4-13.9,40.4-13.9c58.7,15.1,87.8,42.2,87.8,42.2C243.5,177.7,206.2,231.9,206.2,231.9
	L206.2,231.9z M551.1,219.3c0,0-15.2,113.5-137.1,78.8c0,0-32.2,0.6-55.6-46.6c-6-12.2-9.1-18.2-10.5-20.4c5.1,11,7.3,18.5,7.3,18.5
	s-11.2-25-7.3-18.5c-5.7-12.4-15-29.1-28.7-44.5c-3.6-4-6.1-6.9-7.9-9c-4.9-5.1-9.9-12-7.8-17.6c0,0,2.1-15.7,22.7-25.1
	c0,0,58.1-25.8,161.1-3.8C487.3,131.1,573.2,148.7,551.1,219.3L551.1,219.3z"/>
<g>
	<path fill="#666666" d="M537.4,112.9c15,1.1,31.1,7.8,31.1,7.8c19.3,11.9,32.7,18.3,32.7,18.3c8.4-8.4,6-11.3,6-11.3
		C604.3,115.8,537.4,112.9,537.4,112.9L537.4,112.9z"/>
	<path fill="#666666" d="M569.1,150.4c0,0,10.9-11.4-5.5-11.4C563.6,139,555.2,150.9,569.1,150.4L569.1,150.4z"/>
	<path fill="#666666" d="M563.6,165.2c0.5,9.4,6,6.9,6,6.9c2.5,4-2.7,9.9-2.7,9.9c12.7-7,5.7-16.8,5.7-16.8
		C568.1,158.8,563.6,165.2,563.6,165.2L563.6,165.2z"/>
	<path fill="#666666" d="M851.9,49.6c0,0-90.9,26.5-127.4,36.8s-97.1,27.6-106.4,30.2c0,0-2.6-3.7-31.1-7.5c0,0,39.6,9.6,38.6,22
		l2-8.9c0,0,110.1-35.1,142.8-44s65.9-18.3,78.3-22.8c12.4-4.5,35.2-16,45.4-7.5C894.1,47.9,884.6,34.6,851.9,49.6L851.9,49.6z"/>
	<path fill="#666666" d="M627,176.6v-26.2c0,17.3-4.3,28-4.3,28L627,176.6z"/>
	<path fill="#666666" d="M361.9,258.1c-19-47.6-50.6-80.5-50.6-80.5c-4.8,10.8,11.8,36.7,11.8,36.7
		C343.4,250.3,361.9,258.1,361.9,258.1L361.9,258.1z"/>
	<path fill="#666666" d="M361.9,277.5c0,0-50.7-38.1-61.7-89.1c0,0-6.9-25.2,10.2-43.8c0,0-23.1,13.1-9.7,56.6
		c0,0,13.9,43,52.1,74.2c0,0,30.2,25.7,70.9,32.7c0,0,56,11,83.4-17.2C507.2,291,450.9,334.9,361.9,277.5L361.9,277.5z"/>
	<path fill="#666666" d="M187.2,108.8c0,0-14.9-5.4,0,1.5c1,0.5,1.9,0.9,2.8,1.4C188.3,110,187.2,108.8,187.2,108.8L187.2,108.8z"/>
	<path fill="#666666" d="M190.1,111.7c3.8,3.6,10.7,9.6,17.5,12C207.6,123.7,202.8,118,190.1,111.7L190.1,111.7z"/>
	<path fill="#666666" d="M36,133.1c0,0-12.4-42.1,8.9-52.9c0,0-31.2-3-2.5,78.7c0,0,24.3,54.4,57.5,78.2
		C100,237,53.4,194.4,36,133.1L36,133.1z"/>
	<path fill="#666666" d="M11.7,94.5c-1,10.9,4,6.9,4,6.9C16.7,91.5,11.7,94.5,11.7,94.5L11.7,94.5z"/>
	<path fill="#666666" d="M8.7,74.2c0,0-2,9.4,5,9.4C13.7,83.6,17.4,75.2,8.7,74.2L8.7,74.2z"/>
</g>
<g>
	<path fill="#666666" d="M919.3,102.5c-4.3-11.8-11.6-17.9-15.9-37.3c-0.2-0.9-0.4-1.8-0.6-2.6c-4.2-16.7-8.7-14.7-8.7-14.7
		c-11.6-6-47.9,11.5-47.9,11.5c-24.8,12.2-38.9,43.1-38.9,43.1c4-1.9,67.2-36.9,67.2-36.9c30.9-16.9,41.1,68.6,41.1,68.6
		C920.5,125.3,919.3,102.5,919.3,102.5L919.3,102.5z"/>
	<path fill="#666666" d="M326.1,115.9c0,0,56-11,130.4-10.5c0,0,106.9,0.7,151.1,10.5c0,0-21.3-12.8-111-14.6
		C496.6,101.2,386.3,97.7,326.1,115.9L326.1,115.9z"/>
	<path fill="#666666" d="M346.9,255.8c0,0,9.7,12.1,18.3,15.8C365.3,271.6,359.4,253.8,346.9,255.8L346.9,255.8z"/>
	<path fill="#666666" d="M310.5,231.5c14.1,35.1,67.2,66.3,67.2,66.3C338.5,271.6,310.5,231.5,310.5,231.5L310.5,231.5z"/>
	<path fill="#666666" d="M230.4,199.9c-6.4,31.2-29.6,61.7-29.6,61.7c9.8-4.4,24.5-21.9,24.5-21.9c18.2-17.9,23.8-58.3,23.8-58.3
		C228.3,178.6,230.4,199.9,230.4,199.9L230.4,199.9z"/>
	<path fill="#666666" d="M274.5,134c0,0-27-0.3-49.5-12.9c0,0-24.3-17.8-48.1-28.4c0,0,38.6,21,40.6,30.9c0,0-5.9,7.4,4.5,10.4
		c0,0,50.1,5.9,58.5,6.4c1.1,0.1,1.9,0.1,2.5,0.2c4.5-3.2,14.4-10,21.3-13.7C304.2,127,285.4,137,274.5,134L274.5,134z"/>
	<path fill="#666666" d="M282.9,140.7c-1.5,1.1-2.5,1.7-2.5,1.7S286.9,141.3,282.9,140.7L282.9,140.7z"/>
	<path fill="#666666" d="M44.9,80.1c0,0-16.9,11.6-5,52c0,0,10.8,45.6,32.4,66.9c0,0-25.5-42.1-26.5-68.3c0,0,1.5-7.4,6-16.8
		c0,0,6.1-8,5.3-17.4c0,0,14.7-3,40.4-13.9C97.6,82.5,63.3,72.7,44.9,80.1L44.9,80.1z"/>
</g>
<path fill="#666666" d="M130.4,73.1c0,0-43.4-18.8-79.6-24.6c0,0,168.1-36.2,193.3-39.7C244.1,8.8,170.1,26.3,130.4,73.1L130.4,73.1
	z"/>
<path fill="#666666" d="M910,105c0,0-10.7-50.9-35.5-39.5C874.5,65.5,895.6,64.4,910,105L910,105z"/>
<path fill="#666666" d="M533.5,297.8c0,0,73.5-79.5,82.8-153.1c0,0,10.6,14.3,6.9,33.7C623.3,178.4,575,274.6,533.5,297.8
	L533.5,297.8z"/>
<path fill="#666666" d="M387.1,291.6c0,0-93.1-46.5-88.7-129.3C298.5,162.4,296.1,233.2,387.1,291.6L387.1,291.6z"/>
<path fill="#666666" d="M66.6,77.3c0,0-61.6-15-19.7,85C46.9,162.4,10.2,75.7,66.6,77.3L66.6,77.3z"/>
<path fill="#666666" d="M249.2,181.3c0,0-16-5.7-18.8,18.5c0,0,13.1,37.1-29.6,61.7C200.8,261.5,246.3,231.5,249.2,181.3
	L249.2,181.3z"/>
<path fill="#666666" d="M274.5,144.7c0,0-16.6,30.9-56.6-12.5C218,132.2,240.1,153.7,274.5,144.7L274.5,144.7z"/>
<path fill="#666666" d="M136.7,251.5c0,0-44.5-0.8-85.9-81s-2.6,0-2.6,0S87.5,239.2,136.7,251.5L136.7,251.5z"/>
</svg>
